# xmcd CD database file
#
# Track frame offsets:
#	150
#	27164
#	46660
#	69060
#	86662
#	102545
#	127143
#	155923
#	174456
#	197480
#	228609
#
# Disc length: 3345 seconds
#
# Revision: 0
# Processed by: cddbd v1.5.2PL0 Copyright (c) Steve Scherf et al.
# Submitted via: CDex 1.51
#
DISCID=8f0d0f0b
DTITLE=Raveolution - Kamasutra Lounge
DYEAR=2007
DGENRE=New Age
TTITLE0=Saaware Naina
TTITLE1=Bhavna
TTITLE2=Piya Ki Lagan
TTITLE3=Madhur Milan
TTITLE4=Ananda
TTITLE5=Saath Saath
TTITLE6=Manmohini
TTITLE7=Mann Ki Pukar
TTITLE8=Piya Ka Sandesh
TTITLE9=Anant Prem
TTITLE10=Saaware Naina (Radio Edit)
EXTD=YEAR: 2007
EXTT0=
EXTT1=
EXTT2=
EXTT3=
EXTT4=
EXTT5=
EXTT6=
EXTT7=
EXTT8=
EXTT9=
EXTT10=
PLAYORDER=
